<svg width="74" height="74" viewBox="0 0 74 74" fill="none" xmlns="http://www.w3.org/2000/svg">
<path d="M36.9988 33.1044C34.4879 33.1044 32.4336 35.1588 32.4336 37.6696C32.4336 40.1805 34.4879 42.2349 36.9988 42.2349C39.5097 42.2349 41.564 40.1805 41.564 37.6696C41.564 35.1588 39.5097 33.1044 36.9988 33.1044ZM36.9988 39.1914C36.1619 39.1914 35.4771 38.5066 35.4771 37.6696C35.4771 36.8327 36.1619 36.1479 36.9988 36.1479C37.8358 36.1479 38.5206 36.8327 38.5206 37.6696C38.5206 38.5066 37.8358 39.1914 36.9988 39.1914Z" fill="black"/>
<path d="M36.9983 32.3284C37.8353 32.3284 38.52 31.6436 38.52 30.8067V29.2849C38.52 28.448 37.8353 27.7632 36.9983 27.7632C36.1613 27.7632 35.4766 28.448 35.4766 29.2849V30.8067C35.4766 31.6436 36.1613 32.3284 36.9983 32.3284Z" fill="black"/>
<path d="M36.9983 42.9957C36.1613 42.9957 35.4766 43.6805 35.4766 44.5175V46.0392C35.4766 46.8762 36.1613 47.5609 36.9983 47.5609C37.8353 47.5609 38.52 46.8762 38.52 46.0392V44.5175C38.52 43.6805 37.8353 42.9957 36.9983 42.9957Z" fill="black"/>
<path d="M41.8502 34.3369C42.2458 34.3369 42.6263 34.1847 42.9306 33.8956L44.011 32.8151C44.6045 32.2216 44.6045 31.263 44.011 30.6695C43.4176 30.076 42.4589 30.076 41.8654 30.6695L40.785 31.7499C40.1915 32.3434 40.1915 33.3021 40.785 33.8956C41.0589 34.1847 41.4545 34.3369 41.8502 34.3369Z" fill="black"/>
<path d="M31.0763 41.4284L29.9959 42.5088C29.4024 43.1023 29.4024 44.061 29.9959 44.6545C30.3002 44.9588 30.6807 45.0958 31.0763 45.0958C31.472 45.0958 31.8524 44.9436 32.1568 44.6545L33.2372 43.574C33.8307 42.9806 33.8307 42.0219 33.2372 41.4284C32.6285 40.8349 31.6698 40.8349 31.0763 41.4284Z" fill="black"/>
<path d="M45.3872 36.1478H43.8655C43.0285 36.1478 42.3438 36.8326 42.3438 37.6696C42.3438 38.5065 43.0285 39.1913 43.8655 39.1913H45.3872C46.2242 39.1913 46.909 38.5065 46.909 37.6696C46.909 36.8326 46.2242 36.1478 45.3872 36.1478Z" fill="black"/>
<path d="M31.6629 37.6696C31.6629 36.8326 30.9781 36.1478 30.1411 36.1478H28.6194C27.7824 36.1478 27.0977 36.8326 27.0977 37.6696C27.0977 38.5065 27.7824 39.1913 28.6194 39.1913H30.1411C30.9933 39.1913 31.6629 38.5065 31.6629 37.6696Z" fill="black"/>
<path d="M42.9189 41.4284C42.3254 40.8349 41.3667 40.8349 40.7732 41.4284C40.1798 42.0219 40.1798 42.9806 40.7732 43.574L41.8537 44.6545C42.158 44.9436 42.5385 45.0958 42.9341 45.0958C43.3298 45.0958 43.7102 44.9436 44.0145 44.6545C44.608 44.061 44.608 43.1023 44.0145 42.5088L42.9189 41.4284Z" fill="black"/>
<path d="M31.0845 33.8956C31.3889 34.1847 31.7693 34.3369 32.165 34.3369C32.5606 34.3369 32.9411 34.1847 33.2454 33.8956C33.8389 33.3021 33.8389 32.3434 33.2454 31.7499L32.165 30.6695C31.5715 30.076 30.6128 30.076 30.0193 30.6695C29.4258 31.263 29.4258 32.2216 30.0193 32.8151L31.0845 33.8956Z" fill="black"/>
<path d="M65.913 13.3217C65.913 9.9587 63.1891 7.23478 59.8261 7.23478C58.4717 7.23478 57.2239 7.6913 56.2196 8.45217C50.513 4.67826 43.8935 2.66956 37 2.66956C32.7543 2.66956 28.6304 3.46087 24.7043 4.93696C23.3043 3.15652 21.1587 2 18.7391 2C14.5391 2 11.1304 5.40869 11.1304 9.60869C11.1304 10.887 11.4804 12.0739 12.0435 13.1391C5.56087 19.7435 2 28.4022 2 37.6696C2 56.9652 17.7043 72.6696 37 72.6696C40.5152 72.6696 43.9696 72.1217 47.2717 71.1022C48.1087 72.0609 49.3261 72.6696 50.6957 72.6696C53.2065 72.6696 55.2609 70.6152 55.2609 68.1044C55.2609 67.9065 55.2304 67.7239 55.2 67.5413C65.5935 61.2109 72 49.8739 72 37.6696C72 30.0761 69.4739 22.65 64.9239 16.6239C65.5478 15.6652 65.913 14.5391 65.913 13.3217ZM62.8696 13.3217C62.8696 14.9957 61.5 16.3652 59.8261 16.3652C58.1522 16.3652 56.7826 14.9957 56.7826 13.3217C56.7826 11.6478 58.1522 10.2783 59.8261 10.2783C61.5 10.2783 62.8696 11.6478 62.8696 13.3217ZM18.7391 5.04348C21.25 5.04348 23.3043 7.09783 23.3043 9.60869C23.3043 12.1196 21.25 14.1739 18.7391 14.1739C16.2283 14.1739 14.1739 12.1196 14.1739 9.60869C14.1739 7.09783 16.2283 5.04348 18.7391 5.04348ZM50.6957 69.6261C49.8587 69.6261 49.1739 68.9413 49.1739 68.1044C49.1739 67.2674 49.8587 66.5826 50.6957 66.5826C51.5326 66.5826 52.2174 67.2674 52.2174 68.1044C52.2174 68.9413 51.5326 69.6261 50.6957 69.6261ZM53.8304 64.8022C53.0087 64.0261 51.913 63.5391 50.6957 63.5391C48.1848 63.5391 46.1304 65.5935 46.1304 68.1044C46.1304 68.1652 46.1456 68.2109 46.1456 68.2565C43.1935 69.1391 40.1196 69.6261 37 69.6261C19.3783 69.6261 5.04348 55.2913 5.04348 37.6696C5.04348 29.3152 8.23913 21.5239 14.0065 15.5283C15.3152 16.5783 16.9435 17.2174 18.7391 17.2174C22.9391 17.2174 26.3478 13.8087 26.3478 9.60869C26.3478 8.93913 26.2261 8.3 26.0739 7.67609C29.5739 6.39783 33.2413 5.71304 37 5.71304C43.1935 5.71304 49.1283 7.49348 54.287 10.8261C53.937 11.587 53.7391 12.4391 53.7391 13.3217C53.7391 16.6848 56.463 19.4087 59.8261 19.4087C60.8609 19.4087 61.8196 19.1196 62.6717 18.6783C66.7196 24.1413 68.9565 30.8217 68.9565 37.6696C68.9565 48.7326 63.1891 59.0043 53.8304 64.8022Z" fill="black"/>
<path d="M57.4214 31.6436C54.7736 22.5893 46.5562 16.3654 36.9997 16.3654C33.6518 16.3654 30.3497 17.1719 27.3823 18.6784C26.6518 18.1762 25.7692 17.8871 24.8257 17.8871C22.3149 17.8871 20.2605 19.9414 20.2605 22.4523C20.2605 23.0458 20.3823 23.6088 20.5953 24.1262C17.4453 27.9306 15.6953 32.6936 15.6953 37.6697C15.6953 40.4697 16.2584 43.1784 17.3084 45.7501C16.3192 46.8306 15.6953 48.261 15.6953 49.8436C15.6953 53.2067 18.4192 55.9306 21.7823 55.9306C22.8779 55.9306 23.8975 55.611 24.7953 55.0936C28.3714 57.6197 32.5714 58.9741 36.9997 58.9741C47.6671 58.9741 56.691 50.9545 58.091 40.5001C59.9627 39.9371 61.3475 38.2023 61.3475 36.148C61.3475 33.8501 59.6431 31.9632 57.4214 31.6436ZM24.8257 20.9306C25.6627 20.9306 26.3475 21.6154 26.3475 22.4523C26.3475 23.2893 25.6627 23.9741 24.8257 23.9741C23.9888 23.9741 23.304 23.2893 23.304 22.4523C23.304 21.6154 23.9888 20.9306 24.8257 20.9306ZM18.7388 49.8436C18.7388 48.1697 20.1084 46.8001 21.7823 46.8001C23.4562 46.8001 24.8257 48.1697 24.8257 49.8436C24.8257 51.5175 23.4562 52.8871 21.7823 52.8871C20.1084 52.8871 18.7388 51.5175 18.7388 49.8436ZM36.9997 55.9306C33.3931 55.9306 29.954 54.8958 26.9866 52.9328C27.5344 52.0197 27.8692 50.9697 27.8692 49.8436C27.8692 46.4806 25.1453 43.7567 21.7823 43.7567C21.1279 43.7567 20.504 43.8936 19.9105 44.0762C19.1497 42.0371 18.7388 39.8914 18.7388 37.6697C18.7388 33.561 20.1236 29.6349 22.6344 26.4241C23.2888 26.7893 24.0344 27.0175 24.8257 27.0175C27.3366 27.0175 29.391 24.9632 29.391 22.4523C29.391 22.0262 29.3149 21.6154 29.1931 21.2045C31.6279 20.048 34.2757 19.4088 36.9997 19.4088C45.0953 19.4088 52.0953 24.6284 54.4388 32.2523C53.1149 33.0588 52.2171 34.4893 52.2171 36.148C52.2171 38.0501 53.3888 39.6784 55.0475 40.3632C53.7236 49.1893 46.054 55.9306 36.9997 55.9306ZM56.7823 37.6697C55.9453 37.6697 55.2605 36.9849 55.2605 36.148C55.2605 35.311 55.9453 34.6262 56.7823 34.6262C57.6192 34.6262 58.304 35.311 58.304 36.148C58.304 36.9849 57.6192 37.6697 56.7823 37.6697Z" fill="black"/>
</svg>
