<svg width="74" height="74" viewBox="0 0 74 74" fill="none" xmlns="http://www.w3.org/2000/svg">
<g clip-path="url(#clip0)">
<path d="M42.1323 31.8628C45.1341 34.8647 50.1159 34.8647 53.1177 31.8629C56.1195 28.861 56.1195 23.8793 53.1177 20.8775C50.1159 17.8757 45.1341 17.8757 42.1323 20.8775C39.1305 23.8793 39.1305 28.861 42.1323 31.8628ZM51.521 22.4742C53.6925 24.6457 53.6286 28.1585 51.521 30.2661C49.3494 32.4377 45.8367 32.3738 43.729 30.2661C41.5575 28.0946 41.6214 24.5819 43.729 22.4742C45.9006 20.3027 49.3494 20.3027 51.521 22.4742Z" fill="black" stroke="black" stroke-width="0.2" stroke-miterlimit="10"/>
<path d="M51.7798 44.7009L56.9532 39.5276C66.4695 30.0112 72.0261 16.1518 70.9403 4.2084C70.9403 3.56971 70.4294 3.05877 69.7907 3.05877C57.9112 2.03687 43.9879 7.52955 34.4715 17.0459L29.2982 22.2193C21.9533 20.6226 14.8639 22.347 10.0738 27.1371L2.28188 34.9291C1.96254 35.2484 1.8348 35.7593 1.96254 36.1426C2.02641 36.3342 2.15415 36.5896 2.28188 36.7174C2.47349 36.909 2.66509 36.9728 2.8567 37.0367L13.842 39.8469L16.5884 42.5933C11.4789 48.0859 9.11579 55.4308 10.0099 62.8395C10.0738 63.1589 10.2015 63.4143 10.3932 63.6059C10.5848 63.7975 10.8402 63.9253 11.1596 63.9891C18.5683 64.8833 25.9132 62.5202 31.4058 57.4107L34.1522 60.157L36.9624 71.1424C37.0262 71.334 37.154 71.5895 37.2817 71.7172C37.4095 71.8449 37.6649 71.9727 37.8565 72.0365C38.3036 72.1004 38.7507 72.0365 39.07 71.7172L46.862 63.9253C51.6521 59.1351 53.3765 52.0458 51.7798 44.7009ZM36.3237 18.8981C45.0098 10.212 57.528 4.97481 68.5133 5.48576C69.0243 16.4711 63.8509 28.9254 55.101 37.6754L49.4167 43.3597L40.4113 52.3651L21.634 33.5878L30.6394 24.5824L36.3237 18.8981ZM11.926 28.9893C15.6942 25.2211 21.2508 23.6244 27.1267 24.5185L14.2891 37.356L5.79464 35.1207L11.926 28.9893V28.9893ZM19.8457 35.3761L38.623 54.1534L35.2379 57.5384L32.3639 54.6644L19.3347 41.6352L16.4606 38.7612L19.8457 35.3761V35.3761ZM12.5008 61.4983C12.0537 55.1753 14.1614 49.1078 18.4406 44.4454L29.5537 55.5585C24.8913 59.8377 18.8238 61.9454 12.5008 61.4983ZM38.9423 68.2683L36.7069 59.7738L49.5444 46.9363C50.4386 52.8122 48.8419 58.3687 45.0737 62.137L38.9423 68.2683Z" fill="black" stroke="black" stroke-width="0.2" stroke-miterlimit="10"/>
</g>
<defs>
<clipPath id="clip0">
<rect width="74" height="74" fill="white"/>
</clipPath>
</defs>
</svg>
