<svg width="74" height="74" viewBox="0 0 74 74" fill="none" xmlns="http://www.w3.org/2000/svg">
<path d="M70.8045 7.34935C70.5132 7.15404 70.1595 7.0348 69.7877 7.00653C69.4159 6.97826 69.0423 7.0422 68.7137 7.19038L5.03882 35.8054C4.13789 36.2035 3.38093 36.7961 2.84669 37.5218C2.31245 38.2474 2.02044 39.0795 2.00103 39.9316C1.98163 40.7836 2.23554 41.6244 2.73636 42.3665C3.23717 43.1087 3.96659 43.725 4.84875 44.1515L23.0959 53.0539V63.7846C23.0872 64.4234 23.3089 65.0496 23.7319 65.5815C24.155 66.1134 24.7599 66.5264 25.4677 66.7667C26.1755 67.0069 26.9534 67.0632 27.7 66.9283C28.4467 66.7933 29.1274 66.4734 29.6534 66.0102L36.8762 59.7308L48.5658 65.3743C49.3429 65.7557 50.2171 65.9777 51.1166 66.0221C52.0161 66.0664 52.9154 65.9318 53.7407 65.6294C54.566 65.3269 55.2938 64.8651 55.8646 64.2819C56.4353 63.6988 56.8327 63.0108 57.0241 62.2743L71.4697 8.93908C71.548 8.64858 71.5271 8.34554 71.4095 8.06447C71.2919 7.78341 71.0822 7.53563 70.8045 7.34935V7.34935ZM5.79912 40.0182C5.81383 39.7355 5.91848 39.4613 6.10225 39.2237C6.28603 38.9862 6.54227 38.794 6.84452 38.6669L61.3008 14.1852L24.6165 50.0334L6.74949 41.4489C6.45084 41.3049 6.20464 41.0957 6.03723 40.8437C5.86983 40.5917 5.78752 40.3063 5.79912 40.0182V40.0182ZM26.8973 63.7846V54.8821L33.4549 58.0616L26.8973 63.7846ZM53.3176 61.559C53.2556 61.8084 53.1229 62.0416 52.9305 62.2392C52.7382 62.4367 52.4919 62.5927 52.2125 62.694C51.933 62.7952 51.6285 62.8389 51.3247 62.8212C51.0208 62.8035 50.7265 62.725 50.4665 62.5923V62.5923L27.9428 51.7027L66.1477 14.3441L53.3176 61.559Z" fill="black"/>
<path fill-rule="evenodd" clip-rule="evenodd" d="M68.8366 7.46402L5.16006 36.0798C4.3024 36.4587 3.58867 37.02 3.08828 37.6996C2.58838 38.3786 2.31887 39.1517 2.30096 39.9384C2.28304 40.7251 2.51711 41.5053 2.98503 42.1987C3.45345 42.8929 4.14024 43.4757 4.97931 43.8814L4.98029 43.8818L23.3959 52.8665V63.7886C23.3882 64.3536 23.5838 64.9133 23.9667 65.3948C24.3504 65.8772 24.9052 66.2589 25.5641 66.4826C26.223 66.7062 26.9493 66.7591 27.6467 66.6331C28.3441 66.507 28.9735 66.2092 29.4552 65.785L29.4566 65.7838L36.8286 59.3746L48.698 65.105C49.437 65.4677 50.271 65.68 51.1313 65.7224C51.9917 65.7648 52.8508 65.636 53.6374 65.3477C54.4241 65.0594 55.113 64.6209 55.6502 64.0721C56.187 63.5235 56.5564 62.881 56.7337 62.1989L56.7345 62.1959L71.1801 8.86104C71.2408 8.63568 71.225 8.4008 71.1328 8.18029C71.04 7.95872 70.8713 7.75538 70.6374 7.59853C70.3918 7.43387 70.0885 7.33027 69.7649 7.30567C69.4414 7.28107 69.1179 7.3372 68.8366 7.46402ZM71.4697 8.93908L57.0241 62.2743C56.8327 63.0108 56.4353 63.6988 55.8646 64.2819C55.2938 64.8651 54.566 65.3269 53.7407 65.6294C52.9154 65.9318 52.0161 66.0664 51.1166 66.0221C50.2171 65.9777 49.3429 65.7557 48.5658 65.3743L36.8762 59.7308L29.6534 66.0102C29.1274 66.4734 28.4467 66.7933 27.7 66.9283C26.9534 67.0632 26.1755 67.0069 25.4677 66.7667C24.7599 66.5264 24.155 66.1134 23.7319 65.5815C23.3089 65.0496 23.0872 64.4234 23.0959 63.7846V53.0539L4.84875 44.1515C3.96659 43.725 3.23717 43.1087 2.73636 42.3665C2.23554 41.6244 1.98163 40.7836 2.00103 39.9316C2.02044 39.0795 2.31245 38.2474 2.84669 37.5218C3.38093 36.7961 4.13789 36.2035 5.03882 35.8054L68.7137 7.19038C69.0423 7.0422 69.4159 6.97826 69.7877 7.00653C70.1595 7.0348 70.5132 7.15404 70.8045 7.34935C71.0822 7.53563 71.2919 7.78341 71.4095 8.06447C71.5271 8.34554 71.548 8.64858 71.4697 8.93908ZM5.79912 40.0182C5.81383 39.7355 5.91848 39.4613 6.10225 39.2237C6.28603 38.9862 6.54227 38.794 6.84452 38.6669L61.3008 14.1852L24.6165 50.0334L6.74949 41.4489C6.45084 41.3049 6.20464 41.0957 6.03723 40.8437C5.86983 40.5917 5.78752 40.3063 5.79912 40.0182ZM5.79912 40.0182L5.49952 40.0026C5.51762 39.6551 5.64622 39.3229 5.86497 39.0402C6.08252 38.759 6.38081 38.5371 6.72479 38.3918L61.1778 13.9115L61.5104 14.3997L24.6759 50.3948L6.61957 41.7193C6.27721 41.5543 5.98735 41.3108 5.78734 41.0097C5.58681 40.7078 5.48509 40.3606 5.49936 40.0061L5.79912 40.0182ZM26.5973 64.4446V54.4032L33.9938 57.9894L26.5973 64.4446ZM66.1477 14.3441L53.3176 61.559C53.2556 61.8084 53.1229 62.0416 52.9305 62.2392C52.7382 62.4367 52.4919 62.5927 52.2125 62.694C51.933 62.7952 51.6285 62.8389 51.3247 62.8212C51.0208 62.8035 50.7265 62.725 50.4665 62.5923L27.9428 51.7027L66.1477 14.3441ZM50.3332 62.861L27.4276 51.7868L66.7263 13.3587L53.6088 61.6313C53.6085 61.6325 53.6082 61.6336 53.6079 61.6347C53.5318 61.9381 53.3713 62.2166 53.1455 62.4485C52.9191 62.6809 52.6333 62.8605 52.3147 62.976C51.996 63.0915 51.6507 63.1407 51.3072 63.1207C50.9649 63.1007 50.631 63.0125 50.3332 62.861ZM26.8973 63.7846L33.4549 58.0616L26.8973 54.8821V63.7846Z" fill="white"/>
</svg>
