<svg xmlns="http://www.w3.org/2000/svg" xmlns:xlink="http://www.w3.org/1999/xlink" width="27" height="16" viewBox="0 0 27 16"><defs><path id="qqh4a" d="M749 1089a8 8 0 1 1 0-16 8 8 0 0 1 0 16zm6-8a6 6 0 1 0-9.127 5.122c.493-1.951 1.866-3.596 1.866-3.596s-1.169-.793-1.169-2.064c0-1.27.644-2.462 2.273-2.462 1.63 0 2.302 1.352 2.302 2.462s-1.156 2.064-1.156 2.064 1.39 1.84 1.85 3.76A5.999 5.999 0 0 0 755 1081z"/><path id="qqh4b" d="M760 1089a8 8 0 1 1 0-16 8 8 0 0 1 0 16zm-.96-6.474s-1.17-.793-1.17-2.064c0-1.27.644-2.462 2.273-2.462 1.63 0 2.302 1.352 2.302 2.462s-1.156 2.064-1.156 2.064 1.318 1.746 1.813 3.611a6 6 0 1 0-5.965.137c.457-2.017 1.902-3.748 1.902-3.748z"/><path id="qqh4c" d="M757 1081a8 8 0 0 1-8 8v-2a6 6 0 0 0 6-6z"/></defs><g><g transform="translate(-741 -1073)"><g><use fill="#c749a1" xlink:href="#qqh4a"/></g><g><use fill="#03b674" xlink:href="#qqh4b"/></g><g><use fill="#c749a1" xlink:href="#qqh4c"/></g></g></g></svg>