<?xml version="1.0" standalone="no"?>
<!DOCTYPE svg PUBLIC "-//W3C//DTD SVG 20010904//EN"
 "http://www.w3.org/TR/2001/REC-SVG-20010904/DTD/svg10.dtd">
<svg version="1.0" xmlns="http://www.w3.org/2000/svg"
 width="512.000000pt" height="512.000000pt" viewBox="0 0 512.000000 512.000000"
 preserveAspectRatio="xMidYMid meet">
<metadata>
Created by potrace 1.11, written by Peter Selinger 2001-2013
</metadata>
<g transform="translate(0.000000,512.000000) scale(0.100000,-0.100000)"
fill="#000000" stroke="none">
<path d="M1550 4255 c0 -5 -15 -10 -32 -11 -18 0 -67 -6 -108 -13 -41 -7 -84
-14 -95 -16 -26 -4 -114 -29 -195 -55 -101 -32 -315 -143 -420 -217 -107 -77
-293 -258 -360 -351 -73 -100 -142 -220 -184 -317 -21 -49 -45 -104 -52 -120
-7 -17 -15 -42 -17 -55 -3 -14 -10 -38 -17 -55 -6 -16 -11 -31 -11 -32 1 -2 1
-4 0 -5 -4 -14 -10 -47 -12 -65 -1 -13 -6 -23 -10 -23 -5 0 -6 -4 -3 -8 2 -4
-2 -43 -9 -87 -8 -43 -12 -82 -9 -87 3 -4 1 -8 -4 -8 -11 0 -10 -240 1 -257 4
-6 2 -13 -4 -15 -8 -3 -8 -8 2 -18 8 -8 14 -28 13 -45 0 -26 4 -57 22 -143 46
-228 180 -508 332 -692 145 -176 380 -364 552 -442 87 -39 157 -69 175 -74 6
-1 39 -12 74 -23 36 -12 76 -24 90 -26 14 -3 37 -7 51 -10 86 -17 149 -27 170
-27 8 -1 20 -5 27 -10 7 -6 14 -5 18 3 6 8 10 7 16 -2 8 -12 10 -12 18 0 5 8
11 9 15 3 6 -10 176 -8 236 2 30 5 88 14 135 21 178 25 438 129 612 246 279
186 509 472 631 784 21 54 69 215 76 255 3 14 5 25 6 25 1 0 3 14 5 30 2 17 7
57 11 90 5 33 8 91 9 130 l0 70 -280 1 c-154 0 -285 -1 -291 -3 -6 -2 -11 -18
-11 -36 -2 -46 -12 -122 -29 -212 -9 -52 -57 -178 -92 -245 -135 -258 -403
-473 -667 -536 -5 -2 -20 -5 -32 -8 -88 -22 -137 -28 -243 -28 -188 -1 -378
49 -523 137 -32 19 -62 35 -68 35 -5 0 -9 4 -9 8 0 4 -14 16 -32 26 -56 34
-195 181 -251 267 -56 85 -126 228 -133 269 0 3 -5 23 -12 45 -62 219 -39 499
58 710 136 295 392 510 710 596 44 11 59 14 130 24 47 6 199 7 227 1 22 -5 34
6 73 64 50 75 159 201 266 308 68 67 124 124 124 126 0 6 -88 34 -122 40 -15
3 -31 7 -35 9 -5 3 -30 8 -57 11 -27 4 -53 9 -57 11 -3 3 -35 7 -69 10 -35 3
-67 8 -72 11 -5 3 -61 8 -124 10 -86 3 -114 1 -114 -9 0 -8 -4 -7 -10 3 -5 8
-10 11 -10 5z"/>
<path d="M3367 4254 c-1 -1 -22 -5 -47 -8 -168 -20 -254 -38 -370 -76 -366
-120 -657 -345 -876 -675 -96 -144 -198 -394 -230 -560 -4 -22 -9 -47 -10 -55
-9 -44 -16 -105 -20 -187 l-5 -93 50 -1 c28 0 143 0 256 0 113 0 222 0 244 0
l39 1 0 53 c0 113 49 301 110 422 73 145 205 297 343 394 113 80 264 147 374
166 11 2 20 4 20 5 0 7 142 23 200 23 77 -1 196 -13 240 -24 22 -6 47 -13 55
-14 88 -19 250 -97 335 -160 113 -84 239 -221 291 -315 10 -19 21 -37 24 -40
22 -22 83 -182 105 -277 13 -55 27 -167 27 -218 -1 -56 -13 -187 -21 -212 -5
-17 -7 -33 -5 -36 7 -7 -53 -175 -86 -240 -129 -254 -351 -446 -620 -537 -31
-10 -67 -21 -81 -24 -13 -3 -33 -7 -44 -9 -85 -19 -291 -27 -314 -13 -6 4 -36
-28 -68 -71 -89 -122 -157 -199 -281 -321 -63 -61 -113 -112 -111 -113 18 -3
47 -10 129 -32 52 -14 120 -28 150 -32 30 -4 64 -9 75 -12 65 -15 332 -24 350
-12 6 3 17 7 25 7 39 2 125 15 185 26 75 15 269 83 360 125 336 159 616 436
777 771 44 91 92 213 103 260 2 8 10 42 18 75 9 33 18 78 21 100 3 22 8 56 11
75 16 108 20 228 11 318 -11 103 -24 199 -30 221 -3 9 -8 31 -11 49 -12 70
-78 251 -129 352 -158 318 -391 558 -706 728 -127 69 -338 145 -433 157 -22 3
-42 7 -46 9 -3 2 -35 7 -70 11 -34 3 -73 10 -86 15 -14 5 -26 5 -34 -3 -7 -7
-11 -7 -11 -1 0 9 -174 16 -183 8z"/>
</g>
</svg>
