<svg width="594" height="229" viewBox="0 0 594 229" fill="none" xmlns="http://www.w3.org/2000/svg">
<g clip-path="url(#clip0)">
<path d="M68.6164 79.2356L114.633 13.6144V0H4.90117V13.6144H98.0234L49.8286 81.9584L56.0912 91.4885H59.9032L60.1755 91.2162V91.4885C88.4933 91.4885 109.187 108.098 109.187 135.599C109.187 163.1 88.4933 179.71 60.72 179.71C36.7588 179.71 19.0601 169.363 11.9806 150.303L0 157.382C9.25777 180.799 32.9468 193.596 60.72 193.596C94.4837 193.596 123.618 172.358 123.618 135.599C123.618 101.835 99.1125 82.2307 68.6164 79.2356Z" fill="#A6A5A5"/>
<path d="M165.695 172.085H148.813L138.467 228.721H150.992L165.695 172.085Z" fill="#A6A5A5"/>
<path d="M245.654 68.0718C238.302 68.0718 231.495 69.1609 224.96 71.067L273.7 0H257.362L193.375 92.8499C186.023 103.197 181.667 115.994 181.667 130.97C181.667 168.001 208.623 193.596 245.654 193.596C282.685 193.596 309.642 168.001 309.642 130.97C309.642 93.6668 282.685 68.0718 245.654 68.0718ZM245.654 179.71C215.43 179.71 196.37 159.288 196.37 130.97C196.37 102.38 215.43 81.9584 245.654 81.9584C275.878 81.9584 295.21 102.38 295.21 130.97C295.21 159.288 275.878 179.71 245.654 179.71Z" fill="#A6A5A5"/>
<path d="M461.272 136.96H436.766V77.0573H422.334V136.96H335.747L407.903 0H392.111L319.682 136.96V150.575H422.334V190.601H436.766V150.575H461.272V136.96Z" fill="#A6A5A5"/>
<path d="M531.043 77.6019H495.101L499.458 13.6144H587.406V0H486.66L480.125 91.4885H531.043C559.361 91.4885 580.055 108.098 580.055 135.599C580.055 163.1 559.361 179.71 531.043 179.71C507.626 179.71 489.383 168.546 483.12 148.124L470.868 155.204C479.581 180.254 503.814 193.596 531.043 193.596C565.351 193.596 594.486 172.358 594.486 135.599C594.486 98.8403 565.351 77.6019 531.043 77.6019Z" fill="#A6A5A5"/>
</g>
<defs>
<clipPath id="clip0">
<rect width="594" height="229" fill="white"/>
</clipPath>
</defs>
</svg>
