<svg width="596" height="232" viewBox="0 0 596 232" fill="none" xmlns="http://www.w3.org/2000/svg">
<g clip-path="url(#clip0)">
<path d="M0 193.914H120.003V180.004H20.7278L79.9111 119.185C99.2752 99.5479 115.639 78.5474 115.639 54.8195C115.639 19.3641 88.0931 0 58.9105 0C34.0917 0 12.5458 12.0003 1.09094 35.4554L13.364 42.8192C22.3642 23.7279 38.1828 13.9094 58.9105 13.9094C82.0929 13.9094 100.912 28.6371 100.912 54.8195C100.912 73.6382 86.7294 91.6386 70.0926 108.821L0 180.823V193.914Z" fill="#A6A5A5"/>
<path d="M172.189 175.368H155.279L144.915 232.097H157.461L172.189 175.368Z" fill="#A6A5A5"/>
<path d="M334.099 140.185H309.553V80.1838H295.098V140.185H208.369L280.643 3.00007H264.825L192.277 140.185V153.822H295.098V193.914H309.553V153.822H334.099V140.185Z" fill="#A6A5A5"/>
<path d="M412.649 71.1836C405.285 71.1836 398.466 72.2745 391.921 74.1836L440.74 3.00007H424.376L360.284 96.0023C352.92 106.366 348.556 119.185 348.556 134.185C348.556 171.277 375.557 196.914 412.649 196.914C449.74 196.914 476.741 171.277 476.741 134.185C476.741 96.8205 449.74 71.1836 412.649 71.1836ZM412.649 183.004C382.375 183.004 363.284 162.549 363.284 134.185C363.284 105.548 382.375 85.093 412.649 85.093C442.922 85.093 462.286 105.548 462.286 134.185C462.286 162.549 442.922 183.004 412.649 183.004Z" fill="#A6A5A5"/>
<path d="M479.969 3.00007V16.6368H580.608L506.424 193.914H521.425L595.608 16.6368V3.00007H479.969Z" fill="#A6A5A5"/>
</g>
<defs>
<clipPath id="clip0">
<rect width="596" height="232" fill="white"/>
</clipPath>
</defs>
</svg>
