<svg width="236" height="103" viewBox="0 0 236 103" fill="none" xmlns="http://www.w3.org/2000/svg">
<g clip-path="url(#clip0)">
<path d="M173.6 29.3585C173.6 26.7184 171.46 24.5781 168.819 24.5781C166.179 24.5781 164.039 26.7184 164.039 29.3585V97.2357C164.039 99.8758 166.179 102.016 168.819 102.016C171.46 102.016 173.6 99.8758 173.6 97.2357V29.3585Z" fill="#989898"/>
<path d="M214.311 29.3585C214.311 26.7184 212.17 24.5781 209.53 24.5781C206.89 24.5781 204.75 26.7184 204.75 29.3585V97.2357C204.75 99.8758 206.89 102.016 209.53 102.016C212.17 102.016 214.311 99.8758 214.311 97.2357V29.3585Z" fill="#989898"/>
<path d="M193.955 5.66709C193.955 3.02696 191.815 0.886719 189.175 0.886719C186.535 0.886719 184.395 3.02696 184.395 5.66709V97.2364C184.395 99.8765 186.535 102.017 189.175 102.017C191.815 102.017 193.955 99.8765 193.955 97.2364V5.66709Z" fill="#CD60BD"/>
<path d="M234.666 40.2999C234.666 37.6598 232.526 35.5195 229.886 35.5195C227.246 35.5195 225.105 37.6598 225.105 40.2999V97.2347C225.105 99.8748 227.246 102.015 229.886 102.015C232.526 102.015 234.666 99.8748 234.666 97.2347V40.2999Z" fill="#989898"/>
<path d="M153.244 14.2843C153.244 11.6442 151.104 9.50391 148.464 9.50391C145.824 9.50391 143.684 11.6442 143.684 14.2843V97.2371C143.684 99.8773 145.824 102.018 148.464 102.018C151.104 102.018 153.244 99.8773 153.244 97.2371V14.2843Z" fill="#989898"/>
<path d="M112.533 39.3624C112.533 36.7223 110.393 34.582 107.753 34.582C105.113 34.582 102.973 36.7223 102.973 39.3624V97.2421C102.973 99.8822 105.113 102.022 107.753 102.022C110.393 102.022 112.533 99.8822 112.533 97.2421V39.3624Z" fill="#989898"/>
<path d="M132.889 29.3585C132.889 26.7184 130.749 24.5781 128.108 24.5781C125.468 24.5781 123.328 26.7184 123.328 29.3585V97.2395C123.328 99.8796 125.468 102.02 128.108 102.02C130.749 102.02 132.889 99.8796 132.889 97.2395V29.3585Z" fill="#989898"/>
<path d="M92.1779 55.6124C92.1779 52.9723 90.0377 50.832 87.3976 50.832C84.7574 50.832 82.6172 52.9723 82.6172 55.6124V97.239C82.6172 99.8791 84.7574 102.019 87.3976 102.019C90.0377 102.019 92.1779 99.8791 92.1779 97.239V55.6124Z" fill="#989898"/>
<path d="M71.8224 40.2999C71.8224 37.6598 69.6822 35.5195 67.0421 35.5195C64.402 35.5195 62.2617 37.6598 62.2617 40.2999V97.2344C62.2617 99.8745 64.402 102.015 67.0421 102.015C69.6822 102.015 71.8224 99.8745 71.8224 97.2344V40.2999Z" fill="#989898"/>
<path d="M51.467 55.6085C51.467 52.9684 49.3267 50.8281 46.6866 50.8281C44.0465 50.8281 41.9062 52.9684 41.9062 55.6085V97.2381C41.9062 99.8782 44.0465 102.018 46.6866 102.018C49.3267 102.018 51.467 99.8782 51.467 97.2381V55.6085Z" fill="#989898"/>
<path d="M31.1115 74.9952C31.1115 72.3551 28.9713 70.2148 26.3311 70.2148C23.691 70.2148 21.5508 72.3551 21.5508 74.9952V97.2385C21.5508 99.8786 23.691 102.019 26.3311 102.019C28.9713 102.019 31.1115 99.8786 31.1115 97.2385V74.9952Z" fill="#989898"/>
<path d="M10.756 92.339C10.756 89.6988 8.6158 87.5586 5.97568 87.5586C3.33555 87.5586 1.19531 89.6988 1.19531 92.339V97.2354C1.19531 99.8756 3.33555 102.016 5.97568 102.016C8.6158 102.016 10.756 99.8756 10.756 97.2354V92.339Z" fill="#989898"/>
</g>
<defs>
<clipPath id="clip0">
<rect width="235" height="102" fill="white" transform="translate(0.398438 0.158203)"/>
</clipPath>
</defs>
</svg>
