<svg width="221" height="142" viewBox="0 0 221 142" fill="none" xmlns="http://www.w3.org/2000/svg">
<g clip-path="url(#clip0)">
<path d="M4.5625 132.783C30.5496 132.783 49.6518 124.956 67.9869 124.844C94.6529 124.683 114.526 128.248 132.35 117.829C150.996 106.929 160.768 83.5517 171.301 81.8294C189.352 78.8774 216.169 72.2876 216.169 72.2876" stroke="#32E399" stroke-width="8" stroke-linecap="round" stroke-linejoin="round"/>
<path fill-rule="evenodd" clip-rule="evenodd" d="M177.459 28.6332C178.099 28.2272 178.842 28.0117 179.6 28.0117H215.538C217.747 28.0117 219.538 29.8026 219.538 32.0117C219.538 34.2209 217.747 36.0117 215.538 36.0117H180.882L136.978 67.3788C135.281 68.9039 133.171 71.4905 130.657 74.8679C129.401 76.5542 128.097 78.3667 126.736 80.2563L126.709 80.2938C125.346 82.1873 123.93 84.1532 122.493 86.0878C119.634 89.9356 116.593 93.7942 113.527 96.8965C110.556 99.9014 107.106 102.678 103.363 103.663C94.8783 105.895 88.5416 107.186 82.7382 108.368C81.6756 108.585 80.6308 108.797 79.5941 109.012C72.9249 110.39 66.4826 111.848 57.3782 114.781C57.3478 114.791 57.3172 114.801 57.2866 114.81L3.13618 130.836C1.01786 131.462 -1.20759 130.253 -1.83451 128.135C-2.46142 126.017 -1.2524 123.791 0.865917 123.164L54.9706 107.152C64.4229 104.109 71.1579 102.586 77.9748 101.177C79.0366 100.958 80.0979 100.742 81.1701 100.523C86.9625 99.3428 93.0752 98.0973 101.327 95.9264C102.899 95.5128 105.084 94.0572 107.837 91.2724C110.494 88.5849 113.263 85.0966 116.071 81.3171C117.467 79.4381 118.848 77.5202 120.217 75.6196L120.264 75.5538C121.61 73.6849 122.946 71.8288 124.239 70.0911C126.8 66.6505 129.41 63.3715 131.846 61.2374C131.846 61.2374 131.846 61.2375 131.846 61.2374L134.482 64.2463L132.157 60.9916L177.275 28.757" fill="#CD60BD"/>
<path fill-rule="evenodd" clip-rule="evenodd" d="M114.527 37.1562C114.803 37.1562 115.027 37.3801 115.027 37.6562V39.0745C115.027 39.3506 114.803 39.5745 114.527 39.5745C114.251 39.5745 114.027 39.3506 114.027 39.0745V37.6562C114.027 37.3801 114.251 37.1562 114.527 37.1562ZM114.527 41.4109C114.803 41.4109 115.027 41.6347 115.027 41.9109V44.7473C115.027 45.0234 114.803 45.2473 114.527 45.2473C114.251 45.2473 114.027 45.0234 114.027 44.7473V41.9109C114.027 41.6347 114.251 41.4109 114.527 41.4109ZM114.527 47.0837C114.803 47.0837 115.027 47.3075 115.027 47.5837V50.4201C115.027 50.6962 114.803 50.9201 114.527 50.9201C114.251 50.9201 114.027 50.6962 114.027 50.4201V47.5837C114.027 47.3075 114.251 47.0837 114.527 47.0837ZM114.527 52.7565C114.803 52.7565 115.027 52.9803 115.027 53.2565V56.0929C115.027 56.369 114.803 56.5929 114.527 56.5929C114.251 56.5929 114.027 56.369 114.027 56.0929V53.2565C114.027 52.9803 114.251 52.7565 114.527 52.7565ZM114.527 58.4293C114.803 58.4293 115.027 58.6531 115.027 58.9293V61.7657C115.027 62.0418 114.803 62.2657 114.527 62.2657C114.251 62.2657 114.027 62.0418 114.027 61.7657V58.9293C114.027 58.6531 114.251 58.4293 114.527 58.4293ZM114.527 64.1021C114.803 64.1021 115.027 64.326 115.027 64.6021V67.4385C115.027 67.7146 114.803 67.9385 114.527 67.9385C114.251 67.9385 114.027 67.7146 114.027 67.4385V64.6021C114.027 64.326 114.251 64.1021 114.527 64.1021ZM114.527 69.7749C114.803 69.7749 115.027 69.9988 115.027 70.2749V73.1113C115.027 73.3875 114.803 73.6113 114.527 73.6113C114.251 73.6113 114.027 73.3875 114.027 73.1113V70.2749C114.027 69.9988 114.251 69.7749 114.527 69.7749ZM114.527 75.4477C114.803 75.4477 115.027 75.6716 115.027 75.9477V78.7841C115.027 79.0603 114.803 79.2841 114.527 79.2841C114.251 79.2841 114.027 79.0603 114.027 78.7841V75.9477C114.027 75.6716 114.251 75.4477 114.527 75.4477ZM114.527 81.1205C114.803 81.1205 115.027 81.3444 115.027 81.6205V84.4569C115.027 84.7331 114.803 84.9569 114.527 84.9569C114.251 84.9569 114.027 84.7331 114.027 84.4569V81.6205C114.027 81.3444 114.251 81.1205 114.527 81.1205ZM114.527 86.7934C114.803 86.7934 115.027 87.0172 115.027 87.2934V90.1298C115.027 90.4059 114.803 90.6298 114.527 90.6298C114.251 90.6298 114.027 90.4059 114.027 90.1298V87.2934C114.027 87.0172 114.251 86.7934 114.527 86.7934ZM114.527 92.4662C114.803 92.4662 115.027 92.69 115.027 92.9662V95.8026C115.027 96.0788 114.803 96.3026 114.527 96.3026C114.251 96.3026 114.027 96.0788 114.027 95.8026V92.9662C114.027 92.69 114.251 92.4662 114.527 92.4662ZM114.527 98.139C114.803 98.139 115.027 98.3629 115.027 98.639V101.475C115.027 101.752 114.803 101.975 114.527 101.975C114.251 101.975 114.027 101.752 114.027 101.475V98.639C114.027 98.3629 114.251 98.139 114.527 98.139ZM114.527 103.812C114.803 103.812 115.027 104.036 115.027 104.312V107.148C115.027 107.424 114.803 107.648 114.527 107.648C114.251 107.648 114.027 107.424 114.027 107.148V104.312C114.027 104.036 114.251 103.812 114.527 103.812ZM114.527 109.485C114.803 109.485 115.027 109.709 115.027 109.985V112.821C115.027 113.097 114.803 113.321 114.527 113.321C114.251 113.321 114.027 113.097 114.027 112.821V109.985C114.027 109.709 114.251 109.485 114.527 109.485ZM114.527 115.158C114.803 115.158 115.027 115.381 115.027 115.658V118.494C115.027 118.77 114.803 118.994 114.527 118.994C114.251 118.994 114.027 118.77 114.027 118.494V115.658C114.027 115.381 114.251 115.158 114.527 115.158ZM114.527 120.83C114.803 120.83 115.027 121.054 115.027 121.33V124.167C115.027 124.443 114.803 124.667 114.527 124.667C114.251 124.667 114.027 124.443 114.027 124.167V121.33C114.027 121.054 114.251 120.83 114.527 120.83ZM114.527 126.503C114.803 126.503 115.027 126.727 115.027 127.003V129.84C115.027 130.116 114.803 130.34 114.527 130.34C114.251 130.34 114.027 130.116 114.027 129.84V127.003C114.027 126.727 114.251 126.503 114.527 126.503ZM114.527 132.176C114.803 132.176 115.027 132.4 115.027 132.676V135.513C115.027 135.789 114.803 136.013 114.527 136.013C114.251 136.013 114.027 135.789 114.027 135.513V132.676C114.027 132.4 114.251 132.176 114.527 132.176ZM114.527 137.849C114.803 137.849 115.027 138.073 115.027 138.349V139.767C115.027 140.043 114.803 140.267 114.527 140.267C114.251 140.267 114.027 140.043 114.027 139.767V138.349C114.027 138.073 114.251 137.849 114.527 137.849Z" fill="#BCBCBC"/>
<path d="M97.9307 27.6764C97.1172 27.6764 96.4238 27.5285 95.8506 27.2327C95.2866 26.9368 94.8013 26.5393 94.3945 26.0401L95.4762 25.0277C95.8182 25.4438 96.1927 25.7581 96.5994 25.9707C97.0155 26.1834 97.487 26.2897 98.0139 26.2897C98.6333 26.2897 99.1002 26.151 99.4146 25.8737C99.7289 25.5963 99.886 25.2219 99.886 24.7504C99.886 24.3713 99.7751 24.0709 99.5532 23.849C99.3313 23.6271 98.9384 23.4607 98.3745 23.3498L97.5147 23.1972C96.5717 23.0216 95.8645 22.7119 95.393 22.2681C94.9215 21.8243 94.6857 21.2142 94.6857 20.4376C94.6857 20.0123 94.7643 19.6286 94.9215 19.2866C95.0879 18.9353 95.3144 18.644 95.601 18.4129C95.8968 18.1725 96.2527 17.9876 96.6688 17.8582C97.0848 17.7288 97.5517 17.6641 98.0694 17.6641C98.7998 17.6641 99.433 17.7935 99.9693 18.0524C100.505 18.302 100.963 18.6671 101.342 19.1479L100.247 20.1186C99.997 19.795 99.6919 19.5362 99.3313 19.342C98.9708 19.1479 98.5224 19.0508 97.9862 19.0508C97.4315 19.0508 97.0016 19.1618 96.6965 19.3836C96.3914 19.6055 96.2389 19.9291 96.2389 20.3544C96.2389 20.7611 96.3637 21.0662 96.6133 21.2696C96.8629 21.4638 97.2512 21.6117 97.7782 21.7134L98.638 21.8937C99.6087 22.0786 100.316 22.3929 100.759 22.8367C101.212 23.2804 101.439 23.8906 101.439 24.6672C101.439 25.1202 101.36 25.5316 101.203 25.9014C101.046 26.2712 100.815 26.5901 100.51 26.8583C100.214 27.1171 99.8491 27.3205 99.4146 27.4684C98.98 27.6071 98.4854 27.6764 97.9307 27.6764Z" fill="white"/>
<path d="M106.682 19.2173V27.5101H105.114V19.2173H102.23V17.8306H109.566V19.2173H106.682Z" fill="white"/>
<path d="M116.232 27.5101L115.359 24.8892H111.739L110.893 27.5101H109.299L112.599 17.8306H114.568L117.869 27.5101H116.232ZM113.584 19.2728H113.514L112.114 23.544H114.97L113.584 19.2728Z" fill="white"/>
<path d="M120.936 27.5101H119.369V17.8306H123.543C124.412 17.8306 125.096 18.0941 125.595 18.621C126.095 19.1387 126.344 19.846 126.344 20.7428C126.344 21.4361 126.183 22.014 125.859 22.4762C125.545 22.9292 125.078 23.2482 124.458 23.4331L126.552 27.5101H124.805L122.864 23.5995H120.936V27.5101ZM123.432 22.2821C123.83 22.2821 124.139 22.1804 124.361 21.977C124.583 21.7643 124.694 21.4639 124.694 21.0756V20.4099C124.694 20.0216 124.583 19.7258 124.361 19.5224C124.139 19.3098 123.83 19.2035 123.432 19.2035H120.936V22.2821H123.432Z" fill="white"/>
<path d="M131.709 19.2173V27.5101H130.142V19.2173H127.258V17.8306H134.594V19.2173H131.709Z" fill="white"/>
<path d="M95.6836 11.5637V1.09375H102.388V2.59375H97.3786V5.50375H101.923V7.00375H97.3786V10.0638H102.388V11.5637H95.6836Z" fill="white"/>
<path d="M106.151 11.5636L103.496 3.76367H105.116L106.301 7.31867L107.096 10.0487H107.186L107.981 7.31867L109.196 3.76367H110.756L108.071 11.5636H106.151Z" fill="white"/>
<path d="M115.073 11.7437C114.513 11.7437 114.013 11.6487 113.573 11.4587C113.133 11.2687 112.758 10.9987 112.448 10.6487C112.138 10.2887 111.898 9.85874 111.728 9.35874C111.568 8.84874 111.488 8.28374 111.488 7.66374C111.488 7.04374 111.568 6.48374 111.728 5.98374C111.898 5.47374 112.138 5.04374 112.448 4.69374C112.758 4.33374 113.133 4.05874 113.573 3.86874C114.013 3.67874 114.513 3.58374 115.073 3.58374C115.643 3.58374 116.143 3.68374 116.573 3.88374C117.013 4.08374 117.378 4.36374 117.668 4.72374C117.958 5.07374 118.173 5.48374 118.313 5.95374C118.463 6.42374 118.538 6.92874 118.538 7.46874V8.08374H113.183V8.33874C113.183 8.93874 113.358 9.43374 113.708 9.82374C114.068 10.2037 114.578 10.3937 115.238 10.3937C115.718 10.3937 116.123 10.2887 116.453 10.0787C116.783 9.86874 117.063 9.58374 117.293 9.22374L118.253 10.1687C117.963 10.6487 117.543 11.0337 116.993 11.3237C116.443 11.6037 115.803 11.7437 115.073 11.7437ZM115.073 4.85874C114.793 4.85874 114.533 4.90874 114.293 5.00874C114.063 5.10874 113.863 5.24874 113.693 5.42874C113.533 5.60874 113.408 5.82374 113.318 6.07374C113.228 6.32374 113.183 6.59874 113.183 6.89874V7.00374H116.813V6.85374C116.813 6.25374 116.658 5.77374 116.348 5.41374C116.038 5.04374 115.613 4.85874 115.073 4.85874Z" fill="white"/>
<path d="M120.348 11.5637V3.76374H121.983V5.05374H122.058C122.228 4.63374 122.483 4.28374 122.823 4.00374C123.173 3.72374 123.648 3.58374 124.248 3.58374C125.048 3.58374 125.668 3.84874 126.108 4.37874C126.558 4.89874 126.783 5.64374 126.783 6.61374V11.5637H125.148V6.82374C125.148 5.60374 124.658 4.99374 123.678 4.99374C123.468 4.99374 123.258 5.02374 123.048 5.08374C122.848 5.13374 122.668 5.21374 122.508 5.32374C122.348 5.43374 122.218 5.57374 122.118 5.74374C122.028 5.91374 121.983 6.11374 121.983 6.34374V11.5637H120.348Z" fill="white"/>
<path d="M131.21 11.5637C130.64 11.5637 130.21 11.4187 129.92 11.1287C129.63 10.8287 129.485 10.4087 129.485 9.86879V5.09879H128.27V3.76379H128.93C129.2 3.76379 129.385 3.70379 129.485 3.58379C129.595 3.46379 129.65 3.26879 129.65 2.99879V1.63379H131.12V3.76379H132.755V5.09879H131.12V10.2287H132.635V11.5637H131.21Z" fill="white"/>
</g>
<defs>
<clipPath id="clip0">
<rect width="220" height="141" fill="white" transform="translate(0.398438 0.158203)"/>
</clipPath>
</defs>
</svg>
