<svg width="262" height="45" viewBox="0 0 262 45" fill="none" xmlns="http://www.w3.org/2000/svg">
<g clip-path="url(#clip0)">
<path d="M160.312 8.20314V8.20312C160.312 5.71784 158.298 3.70312 155.812 3.70313L30.8125 3.70313C28.3272 3.70313 26.3125 5.71784 26.3125 8.20314C26.3125 10.6884 28.3272 12.7031 30.8125 12.7031L155.812 12.7031C158.298 12.7031 160.312 10.6884 160.312 8.20314Z" fill="#CD60BD"/>
<path d="M256.812 43.7031C259.298 43.7031 261.312 41.6884 261.312 39.2031C261.312 36.7178 259.298 34.7031 256.812 34.7031L30.8125 34.7031C28.3272 34.7031 26.3125 36.7178 26.3125 39.2031C26.3125 41.6884 28.3272 43.7031 30.8125 43.7031L256.812 43.7031Z" fill="#32E399"/>
<path d="M16.9263 34.9992C16.8067 34.9208 16.6694 34.8735 16.5269 34.8618C16.3843 34.8501 16.2411 34.8742 16.1103 34.9321L16.0365 34.9724L13.7464 36.4767V35.2779C13.7456 34.8605 13.5794 34.4605 13.2842 34.1654C12.9891 33.8702 12.589 33.704 12.1716 33.7031H2.88732C2.46992 33.704 2.06988 33.8702 1.77473 34.1654C1.47959 34.4605 1.31339 34.8605 1.3125 35.2779V41.7048C1.31339 42.1222 1.47959 42.5222 1.77473 42.8174C2.06988 43.1125 2.46992 43.2787 2.88732 43.2796H12.1716C12.589 43.2787 12.9891 43.1125 13.2842 42.8174C13.5794 42.5222 13.7456 42.1222 13.7464 41.7048V40.5061L16.0298 42.0103L16.1036 42.0506C16.2348 42.109 16.3785 42.1335 16.5215 42.122C16.6646 42.1106 16.8025 42.0634 16.9227 41.985C17.0429 41.9065 17.1415 41.7992 17.2096 41.6729C17.2777 41.5465 17.313 41.4051 17.3124 41.2616V35.7212C17.3135 35.5782 17.2787 35.4372 17.2112 35.3111C17.1438 35.185 17.0458 35.0778 16.9263 34.9992ZM16.3085 40.9829L14.0386 39.4987C13.9141 39.417 13.7702 39.3699 13.6215 39.3622C13.4729 39.3545 13.3248 39.3864 13.1926 39.4548C13.0604 39.5231 12.9487 39.6254 12.869 39.7511C12.7893 39.8769 12.7445 40.0215 12.7391 40.1703V41.688C12.7391 41.8385 12.6793 41.9828 12.5729 42.0893C12.4665 42.1957 12.3221 42.2555 12.1716 42.2555H2.88732C2.73681 42.2555 2.59248 42.1957 2.48605 42.0893C2.37963 41.9828 2.31985 41.8385 2.31985 41.688V35.2779C2.31985 35.1274 2.37963 34.9831 2.48605 34.8767C2.59248 34.7703 2.73681 34.7105 2.88732 34.7105H12.1716C12.3221 34.7105 12.4665 34.7703 12.5729 34.8767C12.6793 34.9831 12.7391 35.1274 12.7391 35.2779V36.8125C12.7441 36.9617 12.7888 37.107 12.8687 37.2332C12.9486 37.3594 13.0607 37.4621 13.1935 37.5305C13.3262 37.599 13.4749 37.6307 13.624 37.6226C13.7732 37.6144 13.9174 37.5666 14.0419 37.484L16.3118 35.9864L16.3085 40.9829Z" fill="#D0D0D0"/>
<path d="M8.31249 8.99307C7.40607 8.99325 6.52763 8.66093 5.82684 8.05273C5.12606 7.44453 4.64628 6.59808 4.46926 5.65759C4.29224 4.71711 4.42892 3.74079 4.85603 2.89498C5.28314 2.04916 5.97424 1.38619 6.81159 1.01901C7.64893 0.651832 8.58071 0.603171 9.44816 0.881316C10.3156 1.15946 11.065 1.7472 11.5688 2.5444C12.0726 3.3416 12.2995 4.29894 12.2109 5.25329C12.1223 6.20764 11.7236 7.09997 11.0829 7.77823C10.7199 8.16444 10.2882 8.47066 9.8127 8.67919C9.33717 8.88771 8.82726 8.9944 8.31249 8.99307ZM8.31249 1.97837C7.77572 1.97837 7.25101 2.14681 6.80474 2.46237C6.35847 2.77794 6.0107 3.22645 5.80543 3.75116C5.60016 4.27587 5.54661 4.85321 5.65155 5.41013C5.75649 5.96705 6.01522 6.47852 6.39499 6.87984C6.77476 7.28117 7.25852 7.5543 7.78505 7.66469C8.31158 7.77508 8.85724 7.71777 9.35297 7.5C9.84871 7.28224 10.2723 6.91381 10.57 6.44132C10.8678 5.96883 11.0264 5.41352 11.0258 4.84565C11.0241 4.08516 10.7376 3.35637 10.2291 2.81893C9.72052 2.2815 9.03132 1.97924 8.31249 1.97837ZM13.7097 14.7031C13.5499 14.7031 13.3966 14.6359 13.2836 14.5164C13.1705 14.3968 13.107 14.2346 13.107 14.0655C13.107 13.3994 12.983 12.7398 12.7421 12.1244C12.5011 11.5089 12.148 10.9498 11.7027 10.4787C11.2575 10.0077 10.729 9.6341 10.1473 9.37918C9.5656 9.12427 8.94213 8.99307 8.31249 8.99307C7.68286 8.99307 7.05939 9.12427 6.47768 9.37918C5.89598 9.6341 5.36743 10.0077 4.92221 10.4787C4.47699 10.9498 4.12382 11.5089 3.88287 12.1244C3.64192 12.7398 3.5179 13.3994 3.5179 14.0655C3.5179 14.2346 3.4544 14.3968 3.34138 14.5164C3.22835 14.6359 3.07505 14.7031 2.9152 14.7031C2.75536 14.7031 2.60206 14.6359 2.48903 14.5164C2.376 14.3968 2.3125 14.2346 2.3125 14.0655C2.31323 12.601 2.79246 11.1818 3.669 10.0483C4.54554 8.91487 5.7655 8.13681 7.1222 7.84598C8.4789 7.55515 9.88892 7.76943 11.1133 8.45252C12.3378 9.13561 13.3014 10.2455 13.8409 11.5942C14.1539 12.3759 14.3143 13.2165 14.3124 14.0655C14.3125 14.1493 14.297 14.2322 14.2668 14.3096C14.2365 14.387 14.1921 14.4574 14.1361 14.5166C14.0802 14.5758 14.0137 14.6228 13.9405 14.6548C13.8673 14.6868 13.7889 14.7032 13.7097 14.7031Z" fill="#D0D0D0"/>
</g>
<defs>
<clipPath id="clip0">
<rect width="261" height="44" fill="white" transform="translate(0.398438 0.158203)"/>
</clipPath>
</defs>
</svg>
