<svg id="8daf975a-f898-4245-b27b-c805d02cad6d" data-name="Layer 1" xmlns="http://www.w3.org/2000/svg" width="60" height="38.8" viewBox="0 0 60 38.8"><title>brella-logo-footer</title><path d="M40.6,0A19.43,19.43,0,0,0,21.2,19.4H28A12.55,12.55,0,1,1,40.6,32c-.54,0-1.48-.1-1.48-.1a26.35,26.35,0,0,1-5.19,5.83A21,21,0,0,0,40.6,38.8,19.4,19.4,0,0,0,40.6,0" style="fill:#bb16a3"/><path d="M19.4,38.8A19.43,19.43,0,0,0,38.8,19.4H32A12.55,12.55,0,1,1,19.4,6.85c.54,0,1.48.1,1.48.1a26.34,26.34,0,0,1,5.19-5.83A21,21,0,0,0,19.4,0a19.4,19.4,0,0,0,0,38.8" style="fill:#00af66"/></svg>