<svg xmlns="http://www.w3.org/2000/svg" width="28.15" height="27.56" viewBox="0 0 28.15 27.56"><title>pink-instagram</title><path d="M14.08,27.56c-3.77,0-4.27,0-5.8-.08a10.61,10.61,0,0,1-3.42-.64,6.93,6.93,0,0,1-2.49-1.59A6.74,6.74,0,0,1,.74,22.81a10,10,0,0,1-.65-3.34C0,18,0,17.51,0,13.78S0,9.56.09,8.1A10,10,0,0,1,.74,4.75,6.74,6.74,0,0,1,2.36,2.31,6.93,6.93,0,0,1,4.86.72,10.59,10.59,0,0,1,8.27.08C9.76,0,10.26,0,14.08,0s4.27,0,5.8.08A10.58,10.58,0,0,1,23.3.72a6.93,6.93,0,0,1,2.49,1.59,6.77,6.77,0,0,1,1.62,2.44,10,10,0,0,1,.65,3.35c.07,1.47.08,2,.08,5.68s0,4.21-.08,5.68a10,10,0,0,1-.65,3.34,6.76,6.76,0,0,1-1.62,2.44,6.94,6.94,0,0,1-2.49,1.59,10.59,10.59,0,0,1-3.42.64C18.37,27.55,17.87,27.56,14.08,27.56Zm0-20.86a7.16,7.16,0,0,0-7.23,7.08,7.23,7.23,0,0,0,14.46,0A7.16,7.16,0,0,0,14.08,6.7Zm8-2.93a2.15,2.15,0,1,0,2.2,2.15A2.18,2.18,0,0,0,22.1,3.77Zm-8,14.6a4.6,4.6,0,1,1,4.69-4.59,4.65,4.65,0,0,1-4.69,4.6Z" fill="#bb16a3"/></svg>