<svg xmlns="http://www.w3.org/2000/svg" width="28.15" height="22.6" viewBox="0 0 28.15 22.6"><title>pink-twitter</title><path d="M8.85,22.6a16.22,16.22,0,0,0,16.43-16q0-.12,0-.23c0-.25,0-.49,0-.74a11.68,11.68,0,0,0,2.88-3,11.64,11.64,0,0,1-3.32.9A5.74,5.74,0,0,0,27.38.41,11.66,11.66,0,0,1,23.71,1.8,5.83,5.83,0,0,0,16.77.68,5.69,5.69,0,0,0,13.86,7,16.47,16.47,0,0,1,2,1,5.67,5.67,0,0,0,3.75,8.66a5.79,5.79,0,0,1-2.62-.71V8a5.73,5.73,0,0,0,4.63,5.6,5.84,5.84,0,0,1-2.61.1,5.77,5.77,0,0,0,5.4,4,11.68,11.68,0,0,1-7.17,2.45A11.9,11.9,0,0,1,0,20,16.5,16.5,0,0,0,8.85,22.6" fill="#bb16a3"/></svg>